<?xml version="1.0" encoding="UTF-8" standalone="no"?>
<!-- Created with Inkscape (http://www.inkscape.org/) -->

<svg
   xmlns:dc="http://purl.org/dc/elements/1.1/"
   xmlns:cc="http://creativecommons.org/ns#"
   xmlns:rdf="http://www.w3.org/1999/02/22-rdf-syntax-ns#"
   xmlns:svg="http://www.w3.org/2000/svg"
   xmlns="http://www.w3.org/2000/svg"
   xmlns:sodipodi="http://sodipodi.sourceforge.net/DTD/sodipodi-0.dtd"
   xmlns:inkscape="http://www.inkscape.org/namespaces/inkscape"
   version="1.1"
   width="384.86264"
   height="340.20001"
   id="svg2"
   xml:space="preserve"
   inkscape:version="0.48.2 r9819"
   sodipodi:docname="UK traffic sign 506.1.svg"><sodipodi:namedview
     pagecolor="#ffffff"
     bordercolor="#666666"
     borderopacity="1"
     objecttolerance="10"
     gridtolerance="10"
     guidetolerance="10"
     inkscape:pageopacity="0"
     inkscape:pageshadow="2"
     inkscape:window-width="640"
     inkscape:window-height="480"
     id="namedview9"
     showgrid="false"
     inkscape:zoom="0.69157509"
     inkscape:cx="192.73755"
     inkscape:cy="170.06249"
     inkscape:window-x="0"
     inkscape:window-y="24"
     inkscape:window-maximized="0"
     inkscape:current-layer="svg2" /><defs
     id="defs10" /><metadata
     id="metadata8"><rdf:RDF><cc:Work
         rdf:about=""><dc:format>image/svg+xml</dc:format><dc:type
           rdf:resource="http://purl.org/dc/dcmitype/StillImage" /></cc:Work></rdf:RDF></metadata><g
     transform="matrix(1.25,0,0,-1.25,-2.8874505,340.76251)"
     id="g10"><path
       d="m 290.19,0.45001 c 6.914,0.15129 13.561,3.7993 17.28,10.2 3.682,6.419 3.518,13.999 0.24,20.04 l -134.04,232.08 c -3.538,5.862 -10.02,9.794 -17.4,9.84 -7.423,-0.046 -13.905,-3.978 -17.52,-9.84 L 4.83,30.69001 c -3.318,-6.041 -3.4819,-13.621 0.24,-20.04 3.6791,-6.4007 10.326,-10.049 17.28,-10.2 h 267.84"
       inkscape:connector-curvature="0"
       id="path12"
       style="fill:#ec1d24" /><path
       d="M 156.27,238.17 34.47,27.33 H 277.95 L 156.27,238.17"
       inkscape:connector-curvature="0"
       id="path14"
       style="fill:#ffffff" /><path
       d="m 207.15,109.17 h -33.84 v 45.48 l -22.8,22.68 -22.92,-22.68 V 36.21 h 45.72 v 50.4 h 33.84 v 22.56"
       inkscape:connector-curvature="0"
       id="path16" /></g></svg>