<?xml version="1.0"?>
<svg width="1432" height="678" version="1.1" xmlns="http://www.w3.org/2000/svg" xmlns:xlink="http://www.w3.org/1999/xlink">
	<g><line style="stroke: #88bbbb; stroke-width: 1px; opacity: 0.7; " x1="20" y1="70" x2="200" y2="200" transform="rotate(-55, 0, 0)"></line><line style="stroke: #88bbbb; stroke-width: 1px; opacity: 0.7; " x1="20" y1="70" x2="200" y2="200" transform="rotate(35, 0, 0)"></line><line style="stroke: #88bbbb; stroke-width: 1px; opacity: 0.7; " x1="50" y1="50" x2="200" y2="200" transform="rotate(35, 0, 0)"></line><line style="stroke: #88bbbb; stroke-width: 1px; opacity: 0.7; " x1="20" y1="70" x2="200" y2="200" transform="rotate(25, 0, 0)"></line><line style="stroke: #88bbbb; stroke-width: 1px; opacity: 0.7; " x1="50" y1="50" x2="200" y2="200" transform="rotate(25, 0, 0)"></line><line style="stroke: #88bbbb; stroke-width: 1px; opacity: 0.7; " x1="20" y1="70" x2="200" y2="200" transform="rotate(15, 0, 0)"></line><line style="stroke: #88bbbb; stroke-width: 1px; opacity: 0.7; " x1="50" y1="50" x2="200" y2="200" transform="rotate(15, 0, 0)"></line><line style="stroke: #88bbbb; stroke-width: 1px; opacity: 0.7; " x1="20" y1="70" x2="200" y2="200" transform="rotate(5, 0, 0)"></line><line style="stroke: #88bbbb; stroke-width: 1px; opacity: 0.7; " x1="50" y1="50" x2="200" y2="200" transform="rotate(5, 0, 0)"></line><line style="stroke: #88bbbb; stroke-width: 1px; opacity: 0.7; " x1="20" y1="70" x2="200" y2="200" transform="rotate(-5, 0, 0)"></line><line style="stroke: #88bbbb; stroke-width: 1px; opacity: 0.7; " x1="50" y1="50" x2="200" y2="200" transform="rotate(-5, 0, 0)"></line><line style="stroke: #88bbbb; stroke-width: 1px; opacity: 0.7; " x1="20" y1="70" x2="200" y2="200" transform="rotate(-15, 0, 0)"></line><line style="stroke: #88bbbb; stroke-width: 1px; opacity: 0.7; " x1="50" y1="50" x2="200" y2="200" transform="rotate(-15, 0, 0)"></line><line style="stroke: #88bbbb; stroke-width: 1px; opacity: 0.7; " x1="20" y1="70" x2="200" y2="200" transform="rotate(-25, 0, 0)"></line><line style="stroke: #88bbbb; stroke-width: 1px; opacity: 0.7; " x1="50" y1="50" x2="200" y2="200" transform="rotate(-25, 0, 0)"></line><line style="stroke: #88bbbb; stroke-width: 1px; opacity: 0.7; " x1="20" y1="70" x2="200" y2="200" transform="rotate(-35, 0, 0)"></line><line style="stroke: #88bbbb; stroke-width: 1px; opacity: 0.7; " x1="50" y1="50" x2="200" y2="200" transform="rotate(-35, 0, 0)"></line><line style="stroke: #88bbbb; stroke-width: 1px; opacity: 0.7; " x1="20" y1="70" x2="200" y2="200" transform="rotate(-45, 0, 0)"></line><line style="stroke: #88bbbb; stroke-width: 1px; opacity: 0.7; " x1="50" y1="50" x2="200" y2="200" transform="rotate(-45, 0, 0)"></line></g><circle cx="10" cy="10" r="250" fill="url(#triangle)"><animate attributeName="opacity" from="0" to="1" dur="16.2s" repeatCount="1"></animate><animateTransform attributeName="transform" type="rotate" from="0 7.5 7.5" to="360 7.5 7.5" dur="618s" repeatCount="indefinite"></animateTransform></circle><style>#paper &gt; svg text{font-family:sans-serif; font-size:16px}#paper &gt; svg g.basic line,#paper &gt; svg g.basic ellipse{stroke-width:10}</style><g stroke-width="20" class="basic"><line x1="10" y1="5" x2="200" y2="350" stroke="purple"></line><circle cx="200" cy="150" r="50" fill="#f33" stroke="#050" style="cursor:pointer"></circle><ellipse cx="200" cy="270" rx="80" ry="40" stroke="#222" fill="#777" opacity="0.5"></ellipse><polyline points="120,100 200,25 280,100" stroke="#444" fill="none" stroke-linejoin="round" stroke-linecap="round"></polyline></g><defs><path id="squiggle" transform="rotate(-90 300 170)" d="M 20 320 C 120 220 220 120 320 220 C 420 320 520 420 620 320"></path></defs><text><textPath xlink:href="#squiggle" fill="#997099">★ In Xanadu, did Kublah Khan a stately pleasuredome decree…</textPath></text><a xlink:href="https://github.com/dharmafly/pablo" target="_blank"><text x="300" y="170" fill="#777" transform="rotate(-45 300 170)">➵ ♥ pablo</text></a><defs><pattern id="triangle" width="10" height="10" patternUnits="userSpaceOnUse"><polygon points="5,0 10,10 0,10" fill="#bdd"><animateTransform attributeName="transform" type="rotate" from="0 10 10" to="360 10 10" dur="16.2s" repeatCount="indefinite"></animateTransform></polygon></pattern></defs><defs><g id="square"><rect x="0" y="0" width="75" height="75" stroke="red" style="stroke-width: 15px; "></rect></g></defs><use xlink:href="#square" fill="orange" opacity="0.3" x="60" y="50" transform="rotate(22.5,60,50) scale(0.5)"></use><use xlink:href="#square" fill="orange" opacity="0.3" x="460" y="300" transform="rotate(135,460,300) scale(1.5)"></use><use xlink:href="#square" fill="orange" opacity="0.3" x="380" y="250" transform="rotate(112.5,380,250) scale(1.3)"></use><use xlink:href="#square" fill="orange" opacity="0.3" x="300" y="200" transform="rotate(90,300,200) scale(1.1)"></use><use xlink:href="#square" fill="orange" opacity="0.3" x="220" y="150" transform="rotate(67.5,220,150) scale(0.9)"></use><use xlink:href="#square" fill="orange" opacity="0.3" x="140" y="100" transform="rotate(45,140,100) scale(0.7)"></use><path d="m9.948695666855201,4.974347833427601l3.9954746443656974,0l-2.825227215089894,2.8252272150898943l2.7617751067391465,2.887285211676389l-3.994488858483463,-0.08874904630855884l-0.17745429929357207,3.9915319872739867l-2.6969601971432615,-2.9479184739056437l-3.0070970822215517,2.630814469297261l0.2660719872413582,-3.986605489808922l-3.9797117970743603,-0.35455838164731146l3.064791834868722,-2.563370562890041l-2.4946617581982578,-3.120974262302138l3.9708543107712675,0.4428698187937811l0.53096272129599,-3.960037401636903l2.4247219596641525,3.1756166412354667l3.2286920083211608,-2.3535856791653593l-0.6187936196053337,3.9472664072880774" transform="translate(370.35483348416165,317.0060734497383)" opacity="0.4284608202055097" fill="gray"></path><path d="m13.089022062951699,6.5445110314758494l4.874147177307745,0l-3.4465425215755756,3.446542521575576l3.689342804862513,3.18528811479688l-4.8610981414458685,0.356420489434292l0.7109325655280163,4.82202090345208l-3.9123889179054583,-2.906978441803038l-2.6131036803714096,4.1144865854303685l-1.061638033324749,-4.757124697993045l-4.666757004486817,1.4066590799231682l2.305237349791145,-4.2945536982537496l-4.45162610731432,-1.985027885631488l4.551401686563448,-1.7441483290146118l-2.072298732451285,-4.411676401271728l4.584862786100492,1.6541898133793156l1.3144945682056342,-4.693550333832049l2.38935324588194,4.2483292919041125l4.062234982147799,-2.6936142366478038l-0.9677610100156295,4.777106795284212" transform="translate(286.1316965217702,379.29876348003745)" opacity="0.2970878716558218" fill="orange"></path><path d="m5.975052443565801,2.9875262217829004l2.8158588493366974,0l-1.9911128872301274,1.9911128872301278l1.3268207788865551,2.4836681904196993l-2.6944225898329908,-0.8180146494931908l-1.565474172065096,2.3405878911044744l-0.5480881669234694,-2.76200297260272l-2.8021103949093735,-0.27791796294702736l2.177908938087128,-1.784873585660337l-1.0752109585660463,-2.6024954282317716l2.6005311253178123,1.0799532053015364l1.7888406837176978,-2.174651711806787l0.27280959421834655,2.8026123500566773" transform="translate(417.87547445390373,119.55469968728721)" opacity="0.459080212470144" fill="gray"></path><path d="m24.513143460382707,12.256571730191354l9.632137393691169,0l-6.810949668399543,6.810949668399544l6.859132587146227,6.762423450427546l-9.631894644480974,0.0683836863764785l0.13676392594043796,9.631166409085925l-6.906969778054925,-6.71355637914657l-6.664350917653322,6.954458829939037l-0.20513727205310636,-9.629952724212009l-9.628253651033823,0.2735002784231451l6.614809546100739,-7.001597349159564l-7.048382959745773,-6.564934761572968l9.62606927519148,-0.34184949928040453l-0.4101814895495708,-9.623399706786298l7.094813303514932,6.514729077959517l6.464195025828545,-7.140886040191175l0.47849280502381086,9.620245080375247l9.616605554964172,-0.546780002538416l-6.413335152299276,7.186598847523501" transform="translate(359.48542775353417,86.68719911947846)" opacity="0.2013095029629767" fill="gray"></path><path d="m15.874764115316793,7.937382057658397l6.173078069863282,0l-4.36502536399429,4.365025363994291l4.453926618776249,4.274275439321072l-6.171770862846997,0.12703256724091577l0.2540113338134098,6.167849795424765l-4.5409415523226135,-4.181715279047209l-4.087384084131951,4.6260333121813755l-0.380882521834645,-6.161316528241985l-6.1521738282595155,0.5075923989833194l3.991321805600852,-4.709165860400558l-4.790303988790964,-3.8935691276257516l6.140425567581818,-0.634087301256294l-0.7603136556963306,-6.126076721817044l4.869413333837493,3.7941674502942813l3.693158872076134,-4.946460391252751l0.8862180030811827,6.109133367969779l6.089602681867306,-1.0117470205646701l-3.5905861719935994,5.021412530166719" transform="translate(306.6404498531483,7.511940747499466)" opacity="0.11127977389842272" fill="purple"></path><path d="m26.559378872509114,13.279689436254557l13.945766797990863,0l-9.861146271705545,9.861146271705545l3.0660255132870997,13.60455435270913l-11.787880069557861,-7.451865206085312l-12.597613973653985,5.982017532132633l4.677933105393341,-13.137783429688943l-8.605284330569162,-10.974219479033813l13.844799916038106,1.6750901076705143l8.813810373780818,-10.80745845603757l1.4097220782633075,13.874332245048816" transform="translate(259.77725768461823,177.16321618761867)" opacity="0.2168430544435978" fill="purple"></path><path d="m23.111555983079597,11.555777991539799l9.809230788897517,0l-6.936173609053301,6.936173609053302l6.17992448908273,7.617712384902083l-9.756402597944218,-1.0166695710418012l-2.022388474209382,9.598487043760597l-5.357110673467368,-8.217199882081305l-8.728178950044377,4.47659478687286l3.0063239925639156,-9.337185053408204l-8.975311141447843,-3.9578780405739162l9.145145772976084,-3.5478609697778016l-2.580912723677912,-9.463609152041967l8.516763094471237,4.8668013173446605l5.723303703047069,-7.966479987581888l1.5861651621914152,9.680138880620737l9.792402691464408,-0.5743328286417371l-6.518159709453264,7.330388985034501" transform="translate(296.86208290513605,97.9549459554255)" opacity="0.28926603505387904" fill="red"></path><path d="m23.369303513201885,11.684651756600942l9.536427028814865,0l-6.74327222036567,6.743272220365671l6.4354344426758905,7.037657565549177l-9.526914722566225,-0.42583605397103513l-0.8508225899947705,9.49839678031326l-6.1147583507879775,-7.318003196731976l-7.583749840825487,5.781883674693751l1.2741117848623504,-9.450930093677849l-9.384609355915337,-1.6948592014609973l7.834367348863939,-5.43747447984497l-5.082217842381634,-8.069355753620513l9.299566873007066,2.1122254733764296l2.5253779793797024,-9.195972299717676l4.716822478455451,8.288246267012587l8.490602215306483,-4.34201733038266l-2.933492504457655,9.074032301143824" transform="translate(375.20216561155394,48.12775057274848)" opacity="0.170000550057739" fill="orange"></path><path d="m22.45074089721311,11.225370448606554l12.085457900443425,0l-8.545709235148085,8.545709235148077l1.749198367026266,11.958202111362018l-9.692595830708079,-7.218855776778666l-11.57911466505884,3.4615597982426496l5.739978092979594,-10.635362906619818l-5.1010231188195245,-10.95617888703261l11.354156425220275,4.140220348607011l10.102513383898454,-6.633062338885638l-2.4532723609233154,11.833839080641589" transform="translate(265.17185126664117,110.07509588263929)" opacity="0.3287847427651286" fill="purple"></path><path d="m11.999398083309643,5.9996990416548215l4.970080790920848,0l-3.514377830305131,3.5143778303051314l3.2734631178825686,3.7398051131232672l-4.95912952442441,-0.3297535871867635l-0.6580539909894505,4.926323985815718l-3.0181226572767224,-3.948751536107748l-4.140296298145734,2.7494817024015887l0.9834544320239114,-4.871808745056905l-4.795824044089612,-1.304520910684213l4.313595285097714,-2.468724120808799l-2.1770871765293687,-4.467884789704383l4.698704738118392,1.61983852660201l1.9280177139379493,-4.58087881994513l1.8758560776037185,4.602484877150342l4.7168023814529505,-1.5663583123283693l-2.227700365026935,4.4428655338575425" transform="translate(306.5950889652595,389.2955284193158)" opacity="0.10002250457182527" fill="orange"></path><path d="m4.824951581424102,2.412475790712051l1.7332767844904395,0l-1.2256117679864038,1.225611767986404l1.3561537779661044,1.0793958227461233l-1.7221936385798042,0.19569742688337124l0.3888921454216105,1.6890859394604216l-1.4693523949771201,-0.9193758486215085l-0.747598287055391,1.5637599601106824l-0.5771134535619545,-1.6343770903225825l-1.5587667441738438,0.7579542525187073l0.5662599433082425,-1.63816912687856l-1.691628301559824,-0.3776798922571114l1.463221856212841,-0.9291018303472262l-1.0883674384364392,-1.3489643177656039l1.7234538128117818,0.18426982052970453l-0.011496815741958651,-1.7332386549120444l1.2337142826761494,1.2174553299297646l1.070376716766881,-1.3632835713294833l0.20711642311723816,1.7208576928173458l1.6864692624733788,-0.40008728845842606l-0.9096094170221088,1.4754182864930938" transform="translate(431.8564792885445,201.67707297485322)" opacity="0.4068276934325695" fill="orange"></path><path d="m25.7241697992431,12.86208489962155l7.702735625462426,0l-5.446656594451683,5.446656594451684l6.721165754100619,3.762720694082021l-7.413227200699694,2.091936563706989l4.026621655025302,6.566464357860275l-7.4904429534037575,-1.7959399983217779l0.3058420229841017,7.696661404319735l-5.658624439915128,-5.226098503067392l-3.4928853226369747,6.865266800254396l-2.384633811571189,-7.324319606658321l-6.401406600302426,4.2841719915723l1.497110949195921,-7.555845083216419l-7.678448320906939,0.6112016843313343l4.997298021040429,-5.861667732367082l-6.998540225994853,-3.217541114096281l7.223860392731796,-2.6735701116837887l-4.534965505775793,-6.2262528038292615l7.60933044055057,1.1959207173882802l-0.915597383166043,-7.648125100160662l6.055466240160015,4.76061600321328l2.9371223301805434,-7.120775837879103l2.958289765428538,7.112007999118729l6.041279213906164,-4.778606656274751l-0.8928443279193332,7.650814670469433l7.605739566635071,-1.2185490389351592l-4.516425734867095,6.23971431214589" transform="translate(290.4870091751218,26.14026661030948)" opacity="0.4576015985570848" fill="gray"></path><path d="m9.25981998082716,4.62990999041358l4.785967908599984,0l-3.384190362712247,3.3841903627122476l1.262360134836125,4.616485211947009l-4.156971410257335,-2.3717245869729577l-4.120040706221548,2.435313819865183l1.1912818057898835,-4.635335638477855l-3.4357868024451745,-3.3317949922365373l4.785402979254064,-0.07353331418639018l2.3075754435902285,-4.192920747437073l1.3331404492283203,4.596544937752727" transform="translate(344.9735941342078,160.16592194326222)" opacity="0.4347537915222347" fill="purple"></path><path d="m14.346507012262009,7.1732535061310045l5.0947317948771005,0l-3.602519400484308,3.602519400484309l4.024456111141095,3.1241070838290312l-5.054797510903948,0.6366429026470732l1.2633053472494788,4.935620696664454l-4.383302641725441,-2.596719086226775l-2.0286231096521408,4.673433463816182l-1.8701633363817896,-4.739069650995328l-4.468225645134776,2.447703341071289l1.4287250227419583,-4.890300284350914l-5.030503347839347,-0.806429246188882l4.127334618566145,-2.986871441511518l-3.479215262622042,-3.7217406167100737l5.091844733300877,0.17149132248531765l-0.4661350187628039,-5.073362810406392l3.917016479373698,3.2578020139423027l2.7427918352835734,-4.29341181463337l1.0964539024415862,4.975347314665807l4.799334805332197,-1.7095840102371698l-2.1847837393882203,4.602500632681811" transform="translate(432.72869550623,132.3150723706931)" opacity="0.17886667791754007" fill="red"></path><path d="m22.352296890341677,11.176148445170838l8.761158380195328,0l-6.195074501685464,6.195074501685465l6.258903330460619,6.130581152127079l-8.760688493043267,0.09073748247627772l0.18146523190690295,8.759278881989989l-6.322060791790204,-6.065430199728279l-5.9996286329703095,6.384540111026763l-0.27217351629025666,-8.75692969823882l-8.75364119377727,0.3628526057126509l5.9331835101231905,-6.4463345862644355l-6.507437589057819,-5.866101958488633l8.749413721350022,-0.45349277339201866l-0.5440842967212952,-8.744247734421077l6.56784256513299,5.798391173635505l5.7300584186279995,-6.627543035090546l0.634617458311275,8.738143787125122l8.731102534208093,-0.7250825470329798l-5.6611110232465585,6.686532595100627" transform="translate(388.6376145365648,345.73338501155376)" opacity="0.37036022106185557" fill="yellow"></path><path d="m20.750642263912596,10.375321131956298l8.821676606255071,0l-6.237867349717689,6.23786734971769l5.539891215009869,6.865244603887356l-8.771755659082364,-0.9371663687438424l-1.8637260841553853,8.622557812423574l-4.779215747957228,-7.414922452718276l-7.880679757060089,3.964450114708384l2.769192536790658,-8.375771656362827l-8.034190265098953,-3.643317846350661l8.257245172966934,-3.1048156626218995l-2.2100415549817574,-8.540356811667872l7.601679585514733,4.476208845051417l5.258439046431768,-7.0831346831971045l1.2902546583582757,8.726810474734327l8.814495918529051,-0.3558649288461997l-5.981155332359415,6.484424341106659" transform="translate(254.62704356526956,242.3193411435932)" opacity="0.1279625074006617" fill="red"></path><path d="m5.858830032404512,2.929415016202256l2.562973926243202,0l-1.8122962432508782,1.8122962432508787l1.5137890772580258,2.068158111986796l-2.532819147367107,-0.3919981037365549l-0.774772066706799,2.4430643854089005l-1.179660811555684,-2.275353976040273l-2.429008291886967,0.8177738468224897l1.1393148021864368,-2.2958216673168184l-2.0945557740312513,-1.4770482240180378l2.5255054067336373,-0.43664377604823346l-0.045239003389938304,-2.5625746387519683l1.8440027104293322,1.7800250982870358l2.041116050359845,-1.5500582619907943l-0.347230292110224,2.5393437086860735" transform="translate(350.47113036736846,339.75319397170097)" opacity="0.34666205290704966" fill="purple"></path><path d="m16.897599765099585,8.448799882549793l5.645642835410528,0l-3.9920723330760315,3.9920723330760324l4.657880700900507,3.190208520018845l-5.549437107469123,1.0378009516602724l2.0402321858504524,5.26409875029355l-5.164941936978106,-2.2796179093582922l-1.2913347110538604,5.495974680532077l-2.9731294348660438,-4.799352496801557l-4.171037553591479,3.804698247108676l0.2590410078291645,-5.639696869627398l-5.59121024972465,0.7820811776255985l3.400567778482606,-4.506597586757453l-5.054905736168825,-2.514201866093836l5.352167313090577,-1.7965489355169306l-2.749787776467326,-4.93071497953523l5.430935581691375,1.5421484145635254l0.517536373996656,-5.621871496807145l3.6093099787879708,4.341216937915428l3.603764111397043,-4.345821815770742l0.5247140347943695,5.621206116725488l5.428962118536321,-1.5490814505763897l-2.7434899305090497,4.934221927134781" transform="translate(366.14678309997544,258.7366525316611)" opacity="0.24846622236073018" fill="gray"></path><path d="m16.4530442613177,8.22652213065885l6.594182293308569,0l-4.6627910159787485,4.662791015978749l4.571442766508734,4.752383733445694l-6.592940944724609,-0.12794458471557626l-0.2558409985368693,6.589217366338124l-4.478373377478891,-4.840187187420811l-4.926168320069653,4.383617889338257l0.38364108870585456,-6.583012960069337l-6.57433006186548,-0.5112967387301619l5.010294759658319,-4.287211977348992l-4.189191938154711,-5.092534832741337l6.563171940821312,0.6387598864988872l0.7659825423778456,-6.549542797948314l4.0895946761148805,5.1728575760866535l5.251232748333241,-3.9884576894103803l-0.89291680727759,6.5334477645930145" transform="translate(415.3712420258671,126.65228698868304)" opacity="0.11598640950396658" fill="red"></path><path d="m25.15365562797524,12.57682781398762l8.42265168499699,0l-5.95571412203367,5.955714122033676l6.939355223581682,4.773511337341965l-8.282247372362265,1.5314828989515308l3.0119066275180013,7.865715471201319l-7.691640349189077,-3.4321611479517067l-1.9763837579951185,8.187488543376151l-4.391914312403149,-7.186943027413744l-6.268560106202206,5.6254969204251495l0.45471433939437716,-8.410368379347707l-8.352849111694795,1.0821151158920772l5.141185312635664,-6.6715271855791745l-7.495130779478671,-3.8424049767423143l8.016848415168807,-2.582867184929961l-3.9975072537831733,-7.413568449993131l8.068849010773281,2.41552003678829l0.9081023992694898,-8.373554289501183l5.2788716562047595,6.563122385275219l5.493863832114138,-6.38424009581178l0.6295910938681603,8.399087835074981l8.144598366912392,-2.1462942129332214l-4.241441542898101,7.276759927671162" transform="translate(432.1266563027166,395.4558428423479)" opacity="0.3862969278357923" fill="purple"></path><path d="m16.59180164441932,8.29590082220966l9.270173029725138,0l-6.555002212091287,6.555002212091288l0.16421612529115803,9.268718415468111l-6.670091980259689,-6.437855308712578l-9.264355029193934,0.3283807151651634l6.318688033958551,-6.783088494966902l-0.4924422503780572,-9.257084240250053l6.893956294881021,6.197537785710844l9.246908330404723,-0.6563492440271927l-6.07444258416127,7.002660586717843" transform="translate(259.5330944121815,124.02980960905552)" opacity="0.4646984562277794" fill="red"></path><path d="m25.46031935827341,12.730159679136705l11.557900545849197,0l-8.172669852249665,8.172669852249667l6.190728554892686,9.76012013181075l-11.278953272048534,-2.5239409887489046l-4.926052505916474,10.455576107355117l-3.9099636353083302,-10.876453898137372l-11.467786233370425,1.4404665679775082l7.090385732524546,-9.12751308910338l-7.35886920883693,-8.912469298402822l11.505573797451024,1.0985611585840684l3.584561842894394,-10.987992602027301l5.235016093827949,10.304352067214296l11.198848497385935,-2.8584711578635775l-5.897537374430865,9.940026053533877" transform="translate(348.0213661119342,285.1567228278145)" opacity="0.1020105542615056" fill="red"></path><path d="m21.963827372412197,10.981913686206099l11.05842360932504,0l-7.819486323387151,7.819486323387152l3.6573183721118085,10.436127397089923l-9.965571073687403,-4.793341829930592l-8.639276333449798,6.90301652595238l1.2277210837830719,-10.990060676070534l-9.371800864794183,-5.870100618722003l10.777651897171591,-2.476075989680251l2.4402626777091947,-10.785817112627907l5.901198133692496,9.352250708261709l10.98592197993011,-1.2642195118593704l-6.874281739850814,8.662158119339031" transform="translate(401.7296575009823,309.47579787578434)" opacity="0.46696215895935894" fill="orange"></path><path d="m16.320847687195055,8.160423843597528l6.473810204399416,0l-4.577675095645496,4.577675095645497l4.553011914075376,4.602206109342963l-6.473716747600408,-0.034785549068721916l-0.06957009379967737,6.473436379901691l-4.528217276714649,-4.626604246901714l-4.650868803892139,4.503291899440777l0.1043526298840737,-6.47296910939812l-6.472314949580853,-0.1391321530711402l4.674999079741374,-4.478236501906003l-4.453051807516526,-4.698994377753586l6.47147391933697,0.17390765919707624l0.20867814421406902,-6.470446042948923l4.427738543411654,4.722854005130039l4.746577272989121,-4.402297440442792l-0.2434426042192776,6.469231350093838" transform="translate(354.80683588888496,327.7015467127785)" opacity="0.10638456093147397" fill="yellow"></path><path d="m19.277037212625146,9.638518606312573l5.629587722859231,0l-3.980719654118296,3.980719654118297l4.961029810775293,2.6609098342420845l-5.389525208786375,1.626430432949276l3.1141491172164972,4.6898116385529915l-5.5182335705183,-1.1141616536985277l0.5276089195450729,5.604809252542308l-4.3362744745546005,-3.59012278490494l-2.18424671329245,5.188576319650556l-2.1243818375753283,-5.213373163082368l-4.377309321132636,3.5399747225782168l0.5920849727599475,-5.598365235887994l-5.530691965056869,1.0505733277704958l3.1679222689454303,-4.653657317345898l-5.3704480861991275,-1.6883557927189137l4.991328089848852,-2.6036324296745867l-3.934638131735089,-4.026273798646037l5.629214810401383,0.06479620147128243l-1.5642895987256837,-5.407888310670443l4.930074279373048,2.7178347133760186l1.1776023720996216,-5.505044103601053l3.059963393534318,4.72534463924033l3.6397952168382512,-4.29466514513632l0.46306296709471295,5.610510727008088l5.237479322970151,-2.06423551728661l-2.2438222133570376,5.163092077836004" transform="translate(263.5388075443916,395.6398901017383)" opacity="0.48900685738772154" fill="purple"></path><path d="m8.234330788138323,4.117165394069161l2.699917041983742,0l-1.9091296490278282,1.9091296490278287l2.253005561672635,1.4877896264816517l-2.6451416445739033,0.5410893768455503l1.0602237193770236,2.4830379977891175l-2.505464387726869,-1.0060816246342363l-0.48355124198093785,2.6562624550245277l-1.5363388323031717,-2.220183556814969l-1.8672438022876474,1.95011605203706l-0.058599529769993865,-2.6992810392222917l-2.632774634803658,0.5983725895532849l1.4385394818563204,-2.2847661133548853l-2.5267103841602787,-0.951465537037919l2.459441780039012,-1.1138663134293882l-1.5841642264485016,-2.186315562135315l2.666131826834437,0.4257852927646829l-0.11717145168228596,-2.6973733305764154l1.9901837014883412,1.8244782453963118l1.388611601531196,-2.3154502485882107l0.6553738923997804,2.6191672521538214l2.43468685130675,-1.166984134283008l-0.8964011877360963,2.5467659775133553" transform="translate(316.37171944603324,89.75421384908259)" opacity="0.23136075250804425" fill="orange"></path><path d="m25.609903577598743,12.804951788799372l8.042890965705878,0l-5.687182742194645,5.687182742194646l6.868464323372908,4.184769160274764l-7.815816350325476,1.8976590484642357l3.688165034580487,7.147414481050553l-7.661911753588755,-2.446058741414794l-0.5692293674992448,8.022722294421616l-5.2704153921527785,-6.0754272837712655l-4.6603855008669015,6.555066900462786l-1.3397420658422698,-7.93052244705517l-7.390518360613688,3.1730637320522237l2.9821907672024097,-7.469580531344845l-7.962317432083406,-1.1356038908765458l6.433201862166669,-4.827215438205397l-6.2087939878498934,-5.1126287076876835l8.005454760693903,-0.7751059029039513l-2.6420486294616077,-7.596556728267964l7.239787278343498,3.503366274109643l1.6962830438498717,-7.861979325931902l4.359805651796888,6.758712138032891l5.539230654856059,-5.831382240818736l0.2065823675686064,8.040237484778853l7.764496244104412,-2.097782915728343l-4.006971421534908,6.973684471872508" transform="translate(393.8846780336462,178.14136852975935)" opacity="0.19712741505354642" fill="purple"></path><path d="m9.431640226277523,4.715820113138761l5.076962182894137,0l-3.589954387352101,3.5899543873521016l0.7354011552530165,5.023418173653248l-4.072100199097783,-3.0320859115541228l-4.863915546080633,1.4552905438888621l2.410261853571813,-4.468353477932758l-2.1444835879300186,-4.601818678265801l4.7703560803612355,1.7375983060240925l4.24265596163919,-2.7884431853105145l-1.0282837154301212,4.971737886003085" transform="translate(381.0889991931617,97.90027200244367)" opacity="0.45127318231388924" fill="orange"></path><path d="m20.245918494067155,10.122959247033577l8.68135480659591,0l-6.138644853630397,6.138644853630398l5.358072765024569,6.830591301103287l-8.618687014763804,-1.0412278422841519l-2.067423134667107,8.43158839485474l-4.5001444120705205,-7.423922248280648l-7.910071580514789,3.5772459894642683l3.063770357130433,-8.122760151375564l-7.696660939572001,-4.015884916089176l8.282020599496414,-2.6027016862335506l-1.5905813200247494,-8.534399354517824l7.159442494351794,4.910020819515503l5.733269132360932,-6.518860815658152l0.5554972065032195,8.663564170223076" transform="translate(402.27542146109045,290.70125066209584)" opacity="0.12325167655944824" fill="red"></path><path d="m10.2817706692731,5.14088533463655l3.5947566599909955,0l-2.541876810995137,2.5418768109951375l2.874439906069444,2.1586733590205593l-3.5589485202251065,0.5061233791647463l1.0021635519185415,3.452237486001742l-3.149737180037829,-1.7324638931986327l-1.271739540782316,3.3622840428732967l-1.478238193800788,-3.27674950018127l-3.0359807094672666,1.9248627421954665l0.7856790493561001,-3.5078460450755977l-3.5835232381850886,-0.28396592390122116l2.7347278126767094,-2.333139351843794l-2.694934161522758,-2.378992498854766l3.58780794879616,-0.2234044921318919l-0.7263241483304796,-3.520614815071598l3.0030393403069775,1.9758618790589209l1.533367293901591,-3.251316685058921l1.2147736642226488,3.38328248735761l3.1785469590191386,-1.6790219396600519l-1.060324309747702,3.4348199083369244" transform="translate(342.2400807449594,311.6064381133765)" opacity="0.3156214335933328" fill="red"></path><defs><g id="bubble"><circle cx="53" cy="53" r="50" stroke="#0cc" stroke-width="3" fill="#0cc" opacity="0.2"></circle></g></defs><use xlink:href="#bubble" x="268.69" y="17.38"></use><use xlink:href="#bubble" x="297.02" y="354.25"></use><use xlink:href="#bubble" x="282.33" y="296.34"></use><use xlink:href="#bubble" x="337.20" y="273.91"></use><use xlink:href="#bubble" x="332.26" y="221.82"></use><use xlink:href="#bubble" x="308.43" y="190.46"></use><use xlink:href="#bubble" x="361.75" y="125.32"></use><use xlink:href="#bubble" x="337.29" y="97.59"></use><use xlink:href="#bubble" x="341.91" y="31.34"></use></svg>