<!-- Created with Inkscape (http://www.inkscape.org/) -->

<svg xmlns:rdf="http://www.w3.org/1999/02/22-rdf-syntax-ns#" xmlns="http://www.w3.org/2000/svg" xml:space="preserve" height="600" width="680" version="1.1" xmlns:cc="http://creativecommons.org/ns#" xmlns:dc="http://purl.org/dc/elements/1.1/"><metadata><rdf:RDF><cc:Work rdf:about=""><dc:format>image/svg+xml</dc:format><dc:type rdf:resource="http://purl.org/dc/dcmitype/StillImage"/><dc:title/></cc:Work></rdf:RDF></metadata><g fill-rule="nonzero" transform="matrix(1.25,0,0,-1.25,-2.5644362,600.26251)"><path fill="#ec1d24" d="m510.72,0.21001c12.197,0.27986,23.941,6.7137,30.48,17.958,6.5388,11.363,6.2477,24.731,0.42333,35.493l-236.64,409.23c-6.41,10.294-17.863,17.229-30.904,17.324-13.115-0.0951-24.569-7.0299-30.904-17.324l-236.65-409.23c-5.8956-10.763-6.1853-24.131,0.4234-35.493,6.4685-11.244,18.212-17.678,30.48-17.958h473.29"/><path fill="#FFF" d="M274.08,419.58,58.811,47.534h430.32l-215.06,372.04"/><g id="arrows"><path fill="#000" d="m172.69,131.41c-4.9425,12.386-7.673,25.945-7.6201,40.141-0.0529,52.577,37.395,96.424,87.207,106.48l22.014-18.38-19.897-23.239c-28.03-8.2658-48.467-34.18-48.472-64.859,0.005-8.8292,1.6986-17.266,4.8684-24.93l-38.1-15.211"/><path fill="#000" d="M359.17,104.36c-8.29-10.58-18.7-19.72-31.12-26.826-45.51-26.28-102.28-15.835-135.89,22.183l4.8684,28.099,30.057-5.493c21.294-20.049,53.997-24.759,80.646-9.507,7.6306,4.5035,14.106,10.187,19.262,16.69l32.174-25.141"/><path fill="#000" d="m289.53,279.08c13.175-2.0018,26.307-6.4225,38.524-13.521,45.72-26.287,65.04-80.579,48.895-128.66l-26.882-9.7183-10.372,28.732c6.8898,28.326-5.3764,58.947-31.962,74.366-7.6959,4.3363-15.863,7.0915-24.13,8.2394l5.9267,40.563"/></g></g></svg>

