<?xml version="1.0" encoding="UTF-8" standalone="no"?>
<!-- Created with Inkscape (http://www.inkscape.org/) -->

<svg
   xmlns:dc="http://purl.org/dc/elements/1.1/"
   xmlns:cc="http://creativecommons.org/ns#"
   xmlns:rdf="http://www.w3.org/1999/02/22-rdf-syntax-ns#"
   xmlns:svg="http://www.w3.org/2000/svg"
   xmlns="http://www.w3.org/2000/svg"
   xmlns:inkscape="http://www.inkscape.org/namespaces/inkscape"
   version="1.1"
   width="340.79999"
   height="340.79999"
   id="svg2"
   xml:space="preserve"><defs
     id="defs13" /><metadata
     id="metadata8"><rdf:RDF><cc:Work
         rdf:about=""><dc:format>image/svg+xml</dc:format><dc:type
           rdf:resource="http://purl.org/dc/dcmitype/StillImage" /></cc:Work></rdf:RDF></metadata><g
     transform="matrix(1.25,0,0,-1.25,-2.4375,341.51)"
     id="g10"><path
       d="M 138.27,273.21 C 213.6,273.18 274.64,212.15 274.59,136.89 274.64,61.566 213.6,0.53 138.27,0.57 63.021,0.52861 1.98,61.566 1.95,136.89 1.9833,212.15 63.021,273.18 138.27,273.21"
       inkscape:connector-curvature="0"
       id="path12"
       style="fill:#ec1d24" /><path
       d="m 138.27,246.09 c 60.337,-0.058 109.22,-48.938 109.2,-109.2 C 247.49,76.562 198.61,27.68 138.27,27.69 78.016,27.681 29.14,76.562 29.19,136.89 c -0.054,60.262 48.826,109.14 109.08,109.2"
       inkscape:connector-curvature="0"
       id="path14"
       style="fill:#ffffff" /><path
       d="M 132.63,103.77 H 120.15 V 86.49 H 99.27 v 17.28 H 44.55 v 18.72 l 49.08,65.28 h 26.52 v -64.8 h 12.48 v -19.2"
       inkscape:connector-curvature="0"
       id="path16" /><path
       d="m 67.83,122.97 h 31.44 v 42.36 L 67.83,122.97"
       inkscape:connector-curvature="0"
       id="path18"
       style="fill:#ffffff" /><path
       d="m 193.95,83.73 c -28.532,-0.02 -42.932,18.412 -42.96,52.56 0.028,35.834 15.004,53.258 42.84,53.28 29.186,-0.022 43.01,-18.886 42.96,-53.16 0.05,-33.98 -14.062,-52.7 -42.84,-52.68"
       inkscape:connector-curvature="0"
       id="path20" /><path
       d="m 194.07,170.25 c -15.117,0.003 -21.741,-11.085 -21.72,-33.72 -0.021,-20.996 7.035,-33.524 21.72,-33.48 14.835,-0.044 21.603,11.187 21.6,33.48 0.003,21.915 -6.765,33.723 -21.6,33.72"
       inkscape:connector-curvature="0"
       id="path22"
       style="fill:#ffffff" /></g></svg>