<?xml version="1.0" encoding="UTF-8" standalone="no"?>
<!-- Created with Inkscape (http://www.inkscape.org/) -->

<svg
   xmlns:dc="http://purl.org/dc/elements/1.1/"
   xmlns:cc="http://creativecommons.org/ns#"
   xmlns:rdf="http://www.w3.org/1999/02/22-rdf-syntax-ns#"
   xmlns:svg="http://www.w3.org/2000/svg"
   xmlns="http://www.w3.org/2000/svg"
   version="1.1"
   width="680"
   height="600"
   id="svg2"
   xml:space="preserve"><defs
     id="defs22" /><metadata
     id="metadata4"><rdf:RDF><cc:Work
         rdf:about=""><dc:format>image/svg+xml</dc:format><dc:type
           rdf:resource="http://purl.org/dc/dcmitype/StillImage" /><dc:title></dc:title></cc:Work></rdf:RDF></metadata><path
     d="m 635.88869,600 c 15.17875,-0.35018 29.8575,-8.39213 38.09625,-22.4475 8.1065,-14.20375 7.74275,-30.91375 0.52913,-44.36625 L 378.47657,21.648747 C 370.66319,8.7812475 356.34782,0.1124975 340.11532,-0.0062525 c -16.4575,0.11875 -30.775,8.787375 -38.62625,21.6549995 L 5.4515662,533.18625 C -1.7188088,546.64 -2.0808088,563.35 5.9806912,577.5525 14.263941,591.6075 28.943191,599.65 44.078191,600 H 635.90319"
     id="path8"
     style="fill:#ec1d24;fill-opacity:1;fill-rule:nonzero" /><path
     d="M 340.11369,75.78751 71.058691,540.84501 H 608.90869 l -268.7875,-465.05"
     id="path10"
     style="fill:#ffffff;fill-rule:nonzero" /><path
     d="m 425.03869,478.52126 c 11.94713,0.0374 21.54375,9.61925 21.42875,21.39125 0.11463,11.864 -9.48225,21.44375 -21.42875,21.39125 -11.731,0.0528 -21.33,-9.52688 -21.42875,-21.39125 0.0992,-11.77162 9.69838,-21.35375 21.42875,-21.39125"
     id="path12"
     style="fill:#000000;fill-rule:nonzero" /><path
     d="m 472.12619,478.52126 c 11.70675,0.0374 21.30375,9.61925 21.42875,21.39125 -0.12566,11.864 -9.7225,21.44375 -21.42875,21.39125 -11.97137,0.0528 -21.56875,-9.52688 -21.69375,-21.39125 0.12566,-11.77162 9.72263,-21.35375 21.69375,-21.39125"
     id="path14"
     style="fill:#000000;fill-rule:nonzero" /><path
     d="m 495.67619,452.90001 -12.96375,0 0,-66.54875 -17.725,0 c 0,0 -1.64912,-10.044 5.29125,-10.03525 -0.0507,-1.996 0,-10.8275 0,-10.8275 h -42.065 c 0,0 -0.0904,8.83137 0,10.8275 6.79925,-0.009 5.29125,10.03525 5.29125,10.03525 h -82.01375 c 0,0 2.07463,-12.795 -9.78875,-21.12625 h -19.5775 c -11.88975,8.33188 -9.78875,21.12625 -9.78875,21.12625 h -54.76375 v -20.8625 h -61.6425 v 26.14375 h 23.54625 v 38.82 h -36.50875 v 45.68625 h 12.96375 c -1.7395,3.9745 -2.71175,8.39125 -2.64562,12.94 -0.0661,18.1825 14.62125,32.84375 32.805,32.74625 18.05,0.0968 32.7375,-14.56375 32.805,-32.74625 -0.0684,-4.54887 -1.0384,-8.96563 -2.91013,-12.94 h 10.58238 c -1.64025,3.9745 -2.61038,8.39125 -2.64563,12.94 0.0353,18.1825 14.7225,32.84375 32.805,32.74625 18.15125,0.0968 32.83875,-14.56375 32.805,-32.74625 0.0331,-4.54887 -0.93919,-8.96563 -2.64562,-12.94 h 10.05325 c -1.73513,3.9745 -2.70513,8.39125 -2.64563,12.94 -0.0595,18.1825 14.6275,32.84375 32.805,32.74625 18.05625,0.0968 32.74375,-14.56375 32.805,-32.74625 -0.0618,-4.54887 -1.03177,-8.96563 -2.91012,-12.94 h 98.68125 v -23.24"
     id="path16"
     style="fill:#000000;fill-rule:nonzero" /><path
     d="m 403.07619,274.91251 c -7.05712,-13.11875 -21.75375,-21.99625 -37.5675,-21.91875 -2.0195,-0.077 -3.92425,0.0572 -5.82037,0.26409 -8.11763,-11.173 -21.3475,-18.47 -36.245,-18.48625 -24.8,0.0154 -44.8675,20.04625 -44.975,44.63 0.108,24.8375 20.175,44.8675 44.975,44.89375 3.82287,-0.0265 7.57525,-0.51498 11.1115,-1.32038 7.68987,8.20863 18.66875,13.42625 30.95375,13.46875 6.3075,-0.0417 12.35937,-1.4745 17.725,-3.96125 5.4985,7.80375 14.60125,12.9625 24.86875,12.94 5.99012,0.022 11.53475,-1.6945 16.13875,-4.7535 0,0 3.19675,-2.10825 6.08487,-2.11262 3.08438,0.005 8.36675,5.27725 8.46588,7.39437 -0.0992,2.00925 0,16.90125 0,16.90125 h 20.63625 c 0,0 8.43287,-65.78625 -56.35125,-87.94"
     id="path18"
     style="fill:#000000;fill-rule:nonzero" /></svg>