<?xml version="1.0" encoding="UTF-8" standalone="no"?>
<!-- Created with Inkscape (http://www.inkscape.org/) -->

<svg
   xmlns:dc="http://purl.org/dc/elements/1.1/"
   xmlns:cc="http://creativecommons.org/ns#"
   xmlns:rdf="http://www.w3.org/1999/02/22-rdf-syntax-ns#"
   xmlns:svg="http://www.w3.org/2000/svg"
   xmlns="http://www.w3.org/2000/svg"
   xmlns:inkscape="http://www.inkscape.org/namespaces/inkscape"
   version="1.1"
   width="340.88"
   height="340.88"
   id="svg2"
   xml:space="preserve"><defs
     id="defs14" /><metadata
     id="metadata8"><rdf:RDF><cc:Work
         rdf:about=""><dc:format>image/svg+xml</dc:format><dc:type
           rdf:resource="http://purl.org/dc/dcmitype/StillImage" /></cc:Work></rdf:RDF></metadata><g
     transform="matrix(1.25,0,0,-1.25,-208.28,674.78)"
     id="g10"><g
       transform="scale(0.1,0.1)"
       id="g12"><path
         d="m 3030.2,5398.2 c -753.16,0.03 -1363.5,-610.34 -1364,-1363 0.47,-753.16 610.84,-1363.5 1364,-1364 752.66,0.47 1363,610.84 1363,1364 0.03,752.66 -610.34,1363 -1363,1363"
         inkscape:connector-curvature="0"
         id="path14"
         style="fill:#ec1d24" /><path
         d="m 2418.2,4939.2 c 174.71,118.47 385.16,187.51 612,188 602.7,-0.49 1091.5,-489.3 1092,-1092 -0.49,-295.27 -117.54,-562.96 -308,-759 l -1396,1663"
         inkscape:connector-curvature="0"
         id="path16"
         style="fill:#ffffff" /><path
         d="m 2245.2,4794.2 1396,-1664 c -174.2,-117.97 -384.66,-187 -611,-187 -603.2,0 -1092,488.8 -1092,1092 -0.01,294.77 117.04,562.46 307,759"
         inkscape:connector-curvature="0"
         id="path18"
         style="fill:#ffffff" /><path
         d="m 3188.2,4022.2 v 124 c -0.33,50.52 -41.48,91.67 -92,92 h -89 l -227,270 h 411 c 149.7,0.27 271.27,-121.3 271,-271 v -542 l -274,327"
         inkscape:connector-curvature="0"
         id="path20" /><path
         d="m 3462.2,3344.2 v -223 h -274 v 550 l 274,-327"
         inkscape:connector-curvature="0"
         id="path22" /><path
         d="m 2256.2,4508.2 h 229 l 227,-270 h -456 l -177,135 177,135"
         inkscape:connector-curvature="0"
         id="path24" /></g></g></svg>